<svg width="12" height="20" viewBox="0 0 12 20" fill="none" xmlns="http://www.w3.org/2000/svg">
<path d="M6.25 11.6667C9.01142 11.6667 11.25 9.42816 11.25 6.66675C11.25 3.90532 9.01142 1.66675 6.25 1.66675C3.48857 1.66675 1.25 3.90532 1.25 6.66675C1.25 9.42816 3.48857 11.6667 6.25 11.6667ZM6.25 11.6667V18.3334V11.6667ZM3.75 15.8334H8.75H3.75Z" fill="#EDEBFF"/>
<path d="M6.25 11.6667C9.01142 11.6667 11.25 9.42816 11.25 6.66675C11.25 3.90532 9.01142 1.66675 6.25 1.66675C3.48857 1.66675 1.25 3.90532 1.25 6.66675C1.25 9.42816 3.48857 11.6667 6.25 11.6667ZM6.25 11.6667V18.3334M3.75 15.8334H8.75" stroke="#9CA2FF" stroke-width="1.5" stroke-linecap="round" stroke-linejoin="round"/>
</svg>
