<svg width="22" height="22" viewBox="0 0 22 22" fill="none" xmlns="http://www.w3.org/2000/svg">
<path d="M1.8335 10.0834C1.8335 7.05857 1.8335 5.54614 2.7732 4.60645C3.71289 3.66675 5.22532 3.66675 8.25016 3.66675H9.16683C12.1916 3.66675 13.7041 3.66675 14.6438 4.60645C15.5835 5.54614 15.5835 7.05857 15.5835 10.0834V11.9167C15.5835 14.9416 15.5835 16.454 14.6438 17.3937C13.7041 18.3334 12.1916 18.3334 9.16683 18.3334H8.25016C5.22532 18.3334 3.71289 18.3334 2.7732 17.3937C1.8335 16.454 1.8335 14.9416 1.8335 11.9167V10.0834Z" stroke="#CCCCCC" stroke-width="1.5"/>
<path d="M15.5835 8.16362L15.6989 8.06838C17.6384 6.46813 18.6081 5.668 19.3875 6.05434C20.1668 6.44068 20.1668 7.72151 20.1668 10.2832V11.7167C20.1668 14.2784 20.1668 15.5591 19.3875 15.9455C18.6081 16.3318 17.6384 15.5317 15.6989 13.9314L15.5835 13.8362" stroke="#CCCCCC" stroke-width="1.5" stroke-linecap="round"/>
<path d="M10.5415 10.0833C11.3009 10.0833 11.9165 9.46764 11.9165 8.70825C11.9165 7.94886 11.3009 7.33325 10.5415 7.33325C9.78211 7.33325 9.1665 7.94886 9.1665 8.70825C9.1665 9.46764 9.78211 10.0833 10.5415 10.0833Z" stroke="#CCCCCC" stroke-width="1.5"/>
</svg>
