<svg width="22" height="22" viewBox="0 0 22 22" fill="none" xmlns="http://www.w3.org/2000/svg">
<path d="M12.4829 19.5863C12.0854 19.9585 11.554 20.1666 11.001 20.1666C10.448 20.1666 9.91668 19.9585 9.51912 19.5863C5.8786 16.1571 0.999864 12.3262 3.37908 6.76461C4.66549 3.75748 7.75348 1.83325 11.001 1.83325C14.2486 1.83325 17.3365 3.75748 18.623 6.76461C20.9992 12.3193 16.1324 16.1689 12.4829 19.5863Z" stroke="#9CA2FF" stroke-width="1.5"/>
<path d="M14.2082 10.0833C14.2082 11.8552 12.7718 13.2917 10.9998 13.2917C9.22792 13.2917 7.7915 11.8552 7.7915 10.0833C7.7915 8.31142 9.22792 6.875 10.9998 6.875C12.7718 6.875 14.2082 8.31142 14.2082 10.0833Z" stroke="#9CA2FF" stroke-width="1.5"/>
</svg>
