<svg width="22" height="22" viewBox="0 0 22 22" fill="none" xmlns="http://www.w3.org/2000/svg">
<path d="M14.6668 1.83325V5.49992M7.3335 1.83325V5.49992" stroke="#9CA2FF" stroke-width="1.5" stroke-linecap="round" stroke-linejoin="round"/>
<path d="M11.9167 3.66675H10.0833C6.62636 3.66675 4.89789 3.66675 3.82394 4.74069C2.75 5.81464 2.75 7.54311 2.75 11.0001V12.8334C2.75 16.2903 2.75 18.0189 3.82394 19.0928C4.89789 20.1667 6.62636 20.1667 10.0833 20.1667H11.9167C15.3736 20.1667 17.1022 20.1667 18.176 19.0928C19.25 18.0189 19.25 16.2903 19.25 12.8334V11.0001C19.25 7.54311 19.25 5.81464 18.176 4.74069C17.1022 3.66675 15.3736 3.66675 11.9167 3.66675Z" stroke="#9CA2FF" stroke-width="1.5" stroke-linecap="round" stroke-linejoin="round"/>
<path d="M2.75 9.16675H19.25" stroke="#9CA2FF" stroke-width="1.5" stroke-linecap="round" stroke-linejoin="round"/>
<path d="M10.996 12.8333H11.0043M10.996 16.4999H11.0043M14.6586 12.8333H14.6668M7.3335 12.8333H7.34172M7.3335 16.4999H7.34172" stroke="#9CA2FF" stroke-width="2" stroke-linecap="round" stroke-linejoin="round"/>
</svg>
