<svg width="22" height="22" viewBox="0 0 22 22" fill="none" xmlns="http://www.w3.org/2000/svg">
<path d="M4.5835 20.1666V7.33325C4.5835 4.74052 4.5835 3.44417 5.38895 2.63871C6.19441 1.83325 7.49077 1.83325 10.0835 1.83325H11.9168C14.5095 1.83325 15.8059 1.83325 16.6114 2.63871C17.4168 3.44417 17.4168 4.74052 17.4168 7.33325V20.1666H4.5835Z" stroke="#9CA2FF" stroke-width="1.5" stroke-linecap="round" stroke-linejoin="round"/>
<path d="M7.3335 10.0833V6.41659C7.3335 4.8998 7.65005 4.58325 9.16683 4.58325H12.8335C14.3503 4.58325 14.6668 4.8998 14.6668 6.41659V10.0833C14.6668 11.6001 14.3503 11.9166 12.8335 11.9166H9.16683C7.65005 11.9166 7.3335 11.6001 7.3335 10.0833Z" stroke="#9CA2FF" stroke-linecap="round" stroke-linejoin="round"/>
<path d="M2.75 20.1667H19.25" stroke="#9CA2FF" stroke-width="1.5" stroke-linecap="round" stroke-linejoin="round"/>
<path d="M11.0002 4.58325V11.9166M14.6668 8.24992H7.3335" stroke="#9CA2FF" stroke-linecap="round" stroke-linejoin="round"/>
<path d="M7.34151 15.5833H7.33252" stroke="#9CA2FF" stroke-width="1.5" stroke-linecap="round" stroke-linejoin="round"/>
</svg>
