<svg width="28" height="28" viewBox="0 0 28 28" fill="none" xmlns="http://www.w3.org/2000/svg">
<path d="M22.75 6.41675L22.027 18.1127C21.8422 21.1009 21.7499 22.595 21.0009 23.6693C20.6305 24.2004 20.1538 24.6486 19.6008 24.9854C18.4824 25.6667 16.9855 25.6667 13.9915 25.6667C10.9936 25.6667 9.49468 25.6667 8.37556 24.9841C7.82227 24.6467 7.34533 24.1977 6.97513 23.6657C6.22636 22.5898 6.13602 21.0935 5.95538 18.1011L5.25 6.41675" stroke="#2A2A2A" stroke-width="2" stroke-linecap="round"/>
<path d="M3.5 6.41659H24.5M18.7316 6.41659L17.9353 4.7736C17.4062 3.68222 17.1416 3.13653 16.6853 2.7962C16.5842 2.7207 16.477 2.65355 16.3648 2.5954C15.8596 2.33325 15.2531 2.33325 14.0402 2.33325C12.7969 2.33325 12.1753 2.33325 11.6616 2.60639C11.5478 2.66693 11.4391 2.7368 11.3368 2.81528C10.8752 3.1694 10.6174 3.73506 10.1017 4.86639L9.39507 6.41659" stroke="#2A2A2A" stroke-width="2" stroke-linecap="round"/>
<path d="M11.0835 19.25V12.25" stroke="#2A2A2A" stroke-width="2" stroke-linecap="round"/>
<path d="M16.9165 19.25V12.25" stroke="#2A2A2A" stroke-width="2" stroke-linecap="round"/>
</svg>
