<svg width="20" height="20" viewBox="0 0 20 20" fill="none" xmlns="http://www.w3.org/2000/svg">
<path d="M1.5 10C1.5 5.99306 1.5 3.9896 2.74479 2.74479C3.9896 1.5 5.99306 1.5 10 1.5C14.0069 1.5 16.0104 1.5 17.2552 2.74479C18.5 3.9896 18.5 5.99306 18.5 10C18.5 14.0069 18.5 16.0104 17.2552 17.2552C16.0104 18.5 14.0069 18.5 10 18.5C5.99306 18.5 3.9896 18.5 2.74479 17.2552C1.5 16.0104 1.5 14.0069 1.5 10Z" stroke="white" stroke-width="1.275"/>
<path d="M3.73682 18.0526C7.64902 13.3776 12.0347 7.21201 18.4977 11.38" stroke="white" stroke-width="1.275"/>
<path d="M5.97345 7.3158C6.71468 7.3158 7.31556 6.71492 7.31556 5.9737C7.31556 5.23247 6.71468 4.63159 5.97345 4.63159C5.23223 4.63159 4.63135 5.23247 4.63135 5.9737C4.63135 6.71492 5.23223 7.3158 5.97345 7.3158Z" stroke="white" stroke-width="0.85" stroke-linecap="round" stroke-linejoin="round"/>
</svg>
