<svg width="18" height="18" viewBox="0 0 18 18" fill="none" xmlns="http://www.w3.org/2000/svg">
<g clip-path="url(#clip0_326_401)">
<rect x="1" y="1" width="16" height="16" rx="4" fill="#EDEBFF"/>
<path d="M9 1.74717C11.4047 1.74717 11.6895 1.75771 12.6352 1.7999C13.5141 1.83857 13.9887 1.98623 14.3051 2.10928C14.7234 2.271 15.0258 2.46787 15.3387 2.78076C15.6551 3.09717 15.8484 3.396 16.0102 3.81436C16.1332 4.13076 16.2809 4.60889 16.3195 5.48428C16.3617 6.4335 16.3723 6.71826 16.3723 9.11943C16.3723 11.5241 16.3617 11.8089 16.3195 12.7546C16.2809 13.6335 16.1332 14.1081 16.0102 14.4245C15.8484 14.8429 15.6516 15.1452 15.3387 15.4581C15.0223 15.7745 14.7234 15.9679 14.3051 16.1296C13.9887 16.2526 13.5105 16.4003 12.6352 16.439C11.6859 16.4812 11.4012 16.4917 9 16.4917C6.59531 16.4917 6.31055 16.4812 5.36484 16.439C4.48594 16.4003 4.01133 16.2526 3.69492 16.1296C3.27656 15.9679 2.97422 15.771 2.66133 15.4581C2.34492 15.1417 2.15156 14.8429 1.98984 14.4245C1.8668 14.1081 1.71914 13.63 1.68047 12.7546C1.63828 11.8054 1.62773 11.5206 1.62773 9.11943C1.62773 6.71475 1.63828 6.42998 1.68047 5.48428C1.71914 4.60537 1.8668 4.13076 1.98984 3.81436C2.15156 3.396 2.34844 3.09365 2.66133 2.78076C2.97773 2.46436 3.27656 2.271 3.69492 2.10928C4.01133 1.98623 4.48945 1.83857 5.36484 1.7999C6.31055 1.75771 6.59531 1.74717 9 1.74717ZM9 0.126465C6.55664 0.126465 6.25078 0.137012 5.29102 0.179199C4.33477 0.221387 3.67734 0.376074 3.10781 0.597559C2.51367 0.82959 2.01094 1.13545 1.51172 1.63818C1.00898 2.1374 0.703125 2.64014 0.471094 3.23076C0.249609 3.80381 0.0949219 4.45772 0.0527344 5.41397C0.0105469 6.37725 0 6.68311 0 9.12647C0 11.5698 0.0105469 11.8757 0.0527344 12.8355C0.0949219 13.7917 0.249609 14.4491 0.471094 15.0187C0.703125 15.6128 1.00898 16.1155 1.51172 16.6147C2.01094 17.114 2.51367 17.4233 3.1043 17.6519C3.67734 17.8733 4.33125 18.028 5.2875 18.0702C6.24727 18.1124 6.55312 18.1229 8.99648 18.1229C11.4398 18.1229 11.7457 18.1124 12.7055 18.0702C13.6617 18.028 14.3191 17.8733 14.8887 17.6519C15.4793 17.4233 15.982 17.114 16.4812 16.6147C16.9805 16.1155 17.2898 15.6128 17.5184 15.0222C17.7398 14.4491 17.8945 13.7952 17.9367 12.839C17.9789 11.8792 17.9895 11.5733 17.9895 9.12998C17.9895 6.68662 17.9789 6.38076 17.9367 5.421C17.8945 4.46475 17.7398 3.80732 17.5184 3.23779C17.2969 2.64014 16.991 2.1374 16.4883 1.63818C15.9891 1.13896 15.4863 0.82959 14.8957 0.601074C14.3227 0.37959 13.6687 0.224902 12.7125 0.182715C11.7492 0.137012 11.4434 0.126465 9 0.126465Z" fill="#9CA2FF"/>
<path d="M9 4.50342C6.44766 4.50342 4.37695 6.57412 4.37695 9.12647C4.37695 11.6788 6.44766 13.7495 9 13.7495C11.5523 13.7495 13.623 11.6788 13.623 9.12647C13.623 6.57412 11.5523 4.50342 9 4.50342ZM9 12.1253C7.34414 12.1253 6.00117 10.7823 6.00117 9.12647C6.00117 7.47061 7.34414 6.12764 9 6.12764C10.6559 6.12764 11.9988 7.47061 11.9988 9.12647C11.9988 10.7823 10.6559 12.1253 9 12.1253Z" fill="#9CA2FF"/>
<path d="M14.8852 4.32029C14.8852 4.91795 14.4 5.39959 13.8059 5.39959C13.2082 5.39959 12.7266 4.91443 12.7266 4.32029C12.7266 3.72263 13.2117 3.24099 13.8059 3.24099C14.4 3.24099 14.8852 3.72615 14.8852 4.32029Z" fill="#9CA2FF"/>
</g>
<defs>
<clipPath id="clip0_326_401">
<rect width="18" height="18" fill="white"/>
</clipPath>
</defs>
</svg>
