<svg width="22" height="22" viewBox="0 0 22 22" fill="none" xmlns="http://www.w3.org/2000/svg">
<path d="M11.0002 20.1666C16.0628 20.1666 20.1668 16.0625 20.1668 10.9999C20.1668 5.93731 16.0628 1.83325 11.0002 1.83325C5.93755 1.83325 1.8335 5.93731 1.8335 10.9999C1.8335 16.0625 5.93755 20.1666 11.0002 20.1666Z" stroke="#9CA2FF" stroke-width="1.5"/>
<path d="M6.4165 7.68112H10.5415M10.5415 7.68112H13.2915M10.5415 7.68112V6.41675M15.5832 7.68112H13.2915M13.2915 7.68112C12.808 9.41021 11.7954 11.0447 10.6397 12.4812M10.6397 12.4812C9.68268 13.6707 8.62755 14.7243 7.69329 15.5834M10.6397 12.4812C10.0504 11.7903 9.22545 10.6725 8.98972 10.1667M10.6397 12.4812L12.4076 14.3191" stroke="#9CA2FF" stroke-width="1.5" stroke-linecap="round" stroke-linejoin="round"/>
</svg>
