<svg width="24" height="24" viewBox="0 0 24 24" fill="none" xmlns="http://www.w3.org/2000/svg">
<path d="M3.52677 14.4782C3.3365 15.7255 4.18716 16.5912 5.22868 17.0227C9.22167 18.6768 14.7783 18.6768 18.7713 17.0227C19.8128 16.5912 20.6635 15.7255 20.4732 14.4782C20.3563 13.7116 19.7781 13.0734 19.3497 12.4501C18.7886 11.6237 18.7329 10.7223 18.7328 9.76326C18.7328 6.05714 15.7184 3.05273 12 3.05273C8.28159 3.05273 5.26722 6.05714 5.26722 9.76326C5.26714 10.7223 5.21138 11.6237 4.65028 12.4501C4.22191 13.0734 3.64371 13.7116 3.52677 14.4782Z" fill="#9991F0" stroke="white" stroke-width="1.5" stroke-linecap="round" stroke-linejoin="round"/>
<path d="M8.42041 18.2632C8.83064 19.8068 10.2775 20.9474 11.9994 20.9474C13.7213 20.9474 15.1681 19.8068 15.5783 18.2632H8.42041Z" fill="white" fill-opacity="0.3" stroke="white" stroke-width="1.5" stroke-linecap="round" stroke-linejoin="round"/>
</svg>
