<svg width="22" height="22" viewBox="0 0 22 22" fill="none" xmlns="http://www.w3.org/2000/svg">
<path d="M15.9499 5.35147C16.3432 4.95818 16.8361 4.72523 17.3474 4.65262M17.3474 4.65262C18.0903 4.54714 18.8719 4.78009 19.4433 5.35147C20.408 6.31615 20.408 7.8802 19.4433 8.84488C18.6661 9.62217 17.4997 9.77314 16.5712 9.29785C16.1917 9.10363 15.7055 9.08925 15.4041 9.39071L9.39095 15.4039C9.0895 15.7053 9.10387 16.1915 9.29809 16.571C9.77339 17.4994 9.62241 18.6658 8.84511 19.4431C7.88044 20.4078 6.3164 20.4078 5.35172 19.4431C4.78034 18.8717 4.54739 18.0901 4.65287 17.3472M17.3474 4.65262C17.4529 3.90978 17.22 3.12814 16.6486 2.55676C15.684 1.59208 14.1199 1.59208 13.1552 2.55676C12.3779 3.33402 12.2269 4.50039 12.7022 5.42885C12.8965 5.80834 12.9109 6.29454 12.6094 6.59599L6.59624 12.6091C6.29478 12.9106 5.80858 12.8962 5.42909 12.702C4.50064 12.2267 3.33426 12.3777 2.557 13.155C1.59233 14.1196 1.59233 15.6837 2.557 16.6483C3.12838 17.2198 3.91004 17.4527 4.65287 17.3472M4.65287 17.3472C5.16418 17.2746 5.6571 17.0417 6.0504 16.6483" stroke="#9CA2FF" stroke-width="1.5" stroke-linecap="round" stroke-linejoin="round"/>
</svg>
