<svg width="22" height="22" viewBox="0 0 22 22" fill="none" xmlns="http://www.w3.org/2000/svg">
<path d="M2.75 5.5C2.75 4.20364 2.75 3.55546 3.15273 3.15273C3.55546 2.75 4.20364 2.75 5.5 2.75C6.79636 2.75 7.44454 2.75 7.84727 3.15273C8.25 3.55546 8.25 4.20364 8.25 5.5C8.25 6.79636 8.25 7.44454 7.84727 7.84727C7.44454 8.25 6.79636 8.25 5.5 8.25C4.20364 8.25 3.55546 8.25 3.15273 7.84727C2.75 7.44454 2.75 6.79636 2.75 5.5Z" stroke="#9CA2FF" stroke-width="1.5"/>
<path d="M2.75 16.5C2.75 15.2037 2.75 14.5555 3.15273 14.1527C3.55546 13.75 4.20364 13.75 5.5 13.75C6.79636 13.75 7.44454 13.75 7.84727 14.1527C8.25 14.5555 8.25 15.2037 8.25 16.5C8.25 17.7964 8.25 18.4445 7.84727 18.8473C7.44454 19.25 6.79636 19.25 5.5 19.25C4.20364 19.25 3.55546 19.25 3.15273 18.8473C2.75 18.4445 2.75 17.7964 2.75 16.5Z" stroke="#9CA2FF" stroke-width="1.5"/>
<path d="M2.75 11H8.25" stroke="#9CA2FF" stroke-width="1.5" stroke-linecap="round" stroke-linejoin="round"/>
<path d="M11 2.75V7.33333" stroke="#9CA2FF" stroke-width="1.5" stroke-linecap="round" stroke-linejoin="round"/>
<path d="M13.75 5.5C13.75 4.20364 13.75 3.55546 14.1527 3.15273C14.5555 2.75 15.2037 2.75 16.5 2.75C17.7964 2.75 18.4445 2.75 18.8473 3.15273C19.25 3.55546 19.25 4.20364 19.25 5.5C19.25 6.79636 19.25 7.44454 18.8473 7.84727C18.4445 8.25 17.7964 8.25 16.5 8.25C15.2037 8.25 14.5555 8.25 14.1527 7.84727C13.75 7.44454 13.75 6.79636 13.75 5.5Z" stroke="#9CA2FF" stroke-width="1.5"/>
<path d="M19.25 11H13.75C12.4537 11 11.8055 11 11.4027 11.4027C11 11.8055 11 12.4537 11 13.75M11 16.2884V18.827M13.75 13.75V15.125C13.75 16.4509 14.4684 16.5 15.5833 16.5C16.0896 16.5 16.5 16.9104 16.5 17.4167M14.6667 19.25H13.75M16.5 13.75C17.7964 13.75 18.4445 13.75 18.8473 14.1533C19.25 14.5566 19.25 15.2058 19.25 16.5039C19.25 17.8022 19.25 18.4513 18.8473 18.8546C18.5533 19.149 18.1286 19.2286 17.4167 19.25" stroke="#9CA2FF" stroke-width="1.5" stroke-linecap="round"/>
</svg>
