<svg width="22" height="22" viewBox="0 0 22 22" fill="none" xmlns="http://www.w3.org/2000/svg">
<path d="M5.5 15.5833V18.3333M16.5 15.5833V18.3333" stroke="#9CA2FF" stroke-width="1.5" stroke-linecap="round" stroke-linejoin="round"/>
<path d="M18.3332 8.25008C18.3332 6.53662 18.3332 5.67989 17.9648 5.04175C17.7234 4.62369 17.3763 4.27654 16.9582 4.03517C16.32 3.66675 15.4633 3.66675 13.7498 3.66675H8.24984C6.53638 3.66675 5.67964 3.66675 5.0415 4.03517C4.62345 4.27654 4.2763 4.62369 4.03493 5.04175C3.6665 5.67989 3.6665 6.53662 3.6665 8.25008" stroke="#9CA2FF" stroke-width="1.5" stroke-linecap="round" stroke-linejoin="round"/>
<path d="M18.3335 8.25C17.3209 8.25 16.5002 9.07081 16.5002 10.0833V11.9167C16.5002 12.675 16.3419 12.8333 15.5835 12.8333H6.41683C5.65844 12.8333 5.50016 12.675 5.50016 11.9167V10.0833C5.50016 9.07081 4.67935 8.25 3.66683 8.25C2.65431 8.25 1.8335 9.07081 1.8335 10.0833C1.8335 10.7619 2.20218 11.3544 2.75016 11.6714V11.9167C2.75016 13.6451 2.75016 14.5094 3.28714 15.0463C3.8241 15.5833 4.68834 15.5833 6.41683 15.5833H15.5835C17.312 15.5833 18.1762 15.5833 18.7132 15.0463C19.2502 14.5094 19.2502 13.6451 19.2502 11.9167V11.6714C19.7981 11.3544 20.1668 10.7619 20.1668 10.0833C20.1668 9.07081 19.346 8.25 18.3335 8.25Z" stroke="#9CA2FF" stroke-width="1.5" stroke-linejoin="round"/>
</svg>
