<svg width="28" height="28" viewBox="0 0 28 28" fill="none" xmlns="http://www.w3.org/2000/svg">
<path d="M9.3335 8.16666C9.3335 8.16666 11.8953 4.99783 13.3053 3.7787C13.532 3.58271 13.7865 3.4901 14.0395 3.50084C14.2664 3.51046 14.4919 3.60318 14.6953 3.77897C16.1049 4.99832 18.6668 8.16666 18.6668 8.16666M14.0395 4.66666V17.5" stroke="#2A2A2A" stroke-width="2" stroke-linecap="round" stroke-linejoin="round"/>
<path d="M9.33317 12.8333C7.69969 12.8333 6.88294 12.8333 6.25903 13.1512C5.71023 13.4308 5.26404 13.877 4.9844 14.4258C4.6665 15.0497 4.6665 15.8665 4.6665 17.4999V18.6666C4.6665 21.4164 4.6665 22.7913 5.52077 23.6457C6.37505 24.4999 7.74998 24.4999 10.4998 24.4999H17.4998C20.2497 24.4999 21.6246 24.4999 22.4789 23.6457C23.3332 22.7913 23.3332 21.4164 23.3332 18.6666V17.4999C23.3332 15.8665 23.3332 15.0497 23.0153 14.4258C22.7356 13.877 22.2895 13.4308 21.7407 13.1512C21.1167 12.8333 20.3 12.8333 18.6665 12.8333" stroke="#2A2A2A" stroke-width="2" stroke-linecap="round" stroke-linejoin="round"/>
</svg>
