<svg width="12" height="16" viewBox="0 0 12 16" fill="none" xmlns="http://www.w3.org/2000/svg">
<path d="M8.23256 15.5L7.60465 13.5091C7.4186 12.9359 7.17829 12.408 6.88372 11.9253C6.58915 11.4427 6.18605 11.0581 5.67442 10.7715C5.1783 10.4849 4.50388 10.3416 3.65116 10.3416H0V8.69005H3.09302C3.51163 8.69005 3.9845 8.66742 4.51163 8.62217C5.03876 8.57692 5.54264 8.4638 6.02326 8.28281C6.50388 8.08673 6.89923 7.76244 7.2093 7.30996C7.51938 6.84238 7.67442 6.20136 7.67442 5.38688C7.67442 4.75339 7.57364 4.23303 7.37209 3.82579C7.17054 3.41855 6.90698 3.10935 6.58139 2.89819C6.25581 2.67195 5.90698 2.51357 5.53488 2.42308C5.17829 2.3175 4.82946 2.25716 4.48837 2.24208C4.16279 2.21192 3.88372 2.19683 3.65116 2.19683V1.54072L7.74419 1.56335V2.49095C8.24031 2.64178 8.64341 2.86802 8.95349 3.16968C9.26357 3.45626 9.48837 3.79563 9.62791 4.18778C9.78295 4.56486 9.86047 4.97964 9.86047 5.43213C9.86047 5.91478 9.78295 6.38235 9.62791 6.83484C9.48837 7.27225 9.25581 7.67195 8.93023 8.03394C8.60465 8.38085 8.18605 8.66742 7.67442 8.89367C7.16279 9.10483 6.53488 9.23303 5.7907 9.27828V9.5724C6.55039 9.63273 7.17054 9.81373 7.65116 10.1154C8.14729 10.417 8.55814 10.8318 8.88372 11.3597C9.22481 11.8876 9.51163 12.5136 9.74419 13.2376L10.5349 15.5H8.23256ZM0 6.13348V4.77602H12V6.13348H0ZM0 2.19683V0.5H12V2.19683H0Z" fill="#9CA2FF"/>
</svg>
