<svg width="23" height="22" viewBox="0 0 23 22" fill="none" xmlns="http://www.w3.org/2000/svg">
<g clip-path="url(#clip0_11_6126)">
<path d="M11.4998 9V13.26H17.4197C17.1598 14.63 16.3797 15.7901 15.2097 16.57L18.7797 19.3401C20.8597 17.4201 22.0597 14.6001 22.0597 11.2501C22.0597 10.4701 21.9897 9.72005 21.8597 9.00012L11.4998 9Z" fill="#4285F4"/>
<path d="M5.33514 13.0938L4.52998 13.7101L1.67993 15.9301C3.48993 19.52 7.19965 22.0001 11.4996 22.0001C14.4695 22.0001 16.9595 21.0201 18.7796 19.3401L15.2096 16.5701C14.2296 17.2301 12.9796 17.6301 11.4996 17.6301C8.63963 17.6301 6.2097 15.7001 5.33964 13.1001L5.33514 13.0938Z" fill="#34A853"/>
<path d="M1.67991 6.07007C0.929955 7.55001 0.5 9.22003 0.5 11C0.5 12.78 0.929955 14.45 1.67991 15.9299C1.67991 15.9399 5.33998 13.0899 5.33998 13.0899C5.11998 12.4299 4.98994 11.73 4.98994 10.9999C4.98994 10.2698 5.11998 9.56983 5.33998 8.90984L1.67991 6.07007Z" fill="#FBBC05"/>
<path d="M11.4998 4.38C13.1199 4.38 14.5598 4.93998 15.7098 6.02L18.8598 2.87004C16.9498 1.09007 14.4699 0 11.4998 0C7.19988 0 3.48993 2.47 1.67993 6.07001L5.33988 8.91001C6.20983 6.30998 8.63986 4.38 11.4998 4.38Z" fill="#EA4335"/>
</g>
<defs>
<clipPath id="clip0_11_6126">
<rect width="22" height="22" fill="white" transform="translate(0.5)"/>
</clipPath>
</defs>
</svg>
