<svg width="24" height="25" viewBox="0 0 24 25" fill="none" xmlns="http://www.w3.org/2000/svg">
<path d="M16.9434 7.50098H16.9524" stroke="#9CA2FF" stroke-width="2" stroke-linecap="round" stroke-linejoin="round"/>
<path d="M11.9434 7.50098H11.9524" stroke="#9CA2FF" stroke-width="2" stroke-linecap="round" stroke-linejoin="round"/>
<path d="M6.94336 7.50098H6.95234" stroke="#9CA2FF" stroke-width="2" stroke-linecap="round" stroke-linejoin="round"/>
<path d="M7.89193 12.468H5.00845C3.34693 12.468 2 11.1249 2 9.46802V5.49805C2 3.84119 3.34693 2.49805 5.00845 2.49805H18.9916C20.6531 2.49805 22 3.84119 22 5.49805V9.62895" stroke="#9CA2FF" stroke-width="1.5" stroke-linecap="round" stroke-linejoin="round"/>
<path d="M21.9996 16.501C21.9996 13.1873 19.3057 10.501 15.9827 10.501C12.6597 10.501 9.96582 13.1873 9.96582 16.501C9.96582 19.8147 12.6597 22.501 15.9827 22.501C19.3057 22.501 21.9996 19.8147 21.9996 16.501Z" fill="#D3CEFF" stroke="#9CA2FF" stroke-width="1.5" stroke-linecap="round"/>
<path d="M13.4082 17.1677C13.4082 17.1677 14.0332 17.1677 14.6582 18.501C14.6582 18.501 16.6435 15.1677 18.4082 14.501" stroke="white" stroke-width="1.5" stroke-linecap="round" stroke-linejoin="round"/>
</svg>
