<svg width="22" height="22" viewBox="0 0 22 22" fill="none" xmlns="http://www.w3.org/2000/svg">
<path d="M11 2.13516C13.9391 2.13516 14.2871 2.14805 15.443 2.19961C16.5172 2.24687 17.0973 2.42734 17.484 2.57773C17.9953 2.77539 18.3648 3.01602 18.7473 3.39844C19.134 3.78516 19.3703 4.15039 19.568 4.66172C19.7184 5.04844 19.8988 5.63281 19.9461 6.70273C19.9977 7.86289 20.0105 8.21094 20.0105 11.1457C20.0105 14.0848 19.9977 14.4328 19.9461 15.5887C19.8988 16.6629 19.7184 17.243 19.568 17.6297C19.3703 18.141 19.1297 18.5105 18.7473 18.893C18.3605 19.2797 17.9953 19.516 17.484 19.7137C17.0973 19.8641 16.5129 20.0445 15.443 20.0918C14.2828 20.1434 13.9348 20.1562 11 20.1562C8.06094 20.1562 7.71289 20.1434 6.55703 20.0918C5.48281 20.0445 4.90273 19.8641 4.51602 19.7137C4.00469 19.516 3.63516 19.2754 3.25273 18.893C2.86602 18.5063 2.62969 18.141 2.43203 17.6297C2.28164 17.243 2.10117 16.6586 2.05391 15.5887C2.00234 14.4285 1.98945 14.0805 1.98945 11.1457C1.98945 8.20664 2.00234 7.85859 2.05391 6.70273C2.10117 5.62852 2.28164 5.04844 2.43203 4.66172C2.62969 4.15039 2.87031 3.78086 3.25273 3.39844C3.63945 3.01172 4.00469 2.77539 4.51602 2.57773C4.90273 2.42734 5.48711 2.24687 6.55703 2.19961C7.71289 2.14805 8.06094 2.13516 11 2.13516ZM11 0.154297C8.01367 0.154297 7.63984 0.167187 6.4668 0.21875C5.29805 0.270313 4.49453 0.459375 3.79844 0.730078C3.07227 1.01367 2.45781 1.3875 1.84766 2.00195C1.2332 2.61211 0.859375 3.22656 0.575781 3.94844C0.305078 4.64883 0.116016 5.44805 0.0644531 6.6168C0.0128906 7.79414 0 8.16797 0 11.1543C0 14.1406 0.0128906 14.5145 0.0644531 15.6875C0.116016 16.8563 0.305078 17.6598 0.575781 18.3559C0.859375 19.082 1.2332 19.6965 1.84766 20.3066C2.45781 20.9168 3.07227 21.2949 3.79414 21.5742C4.49453 21.8449 5.29375 22.034 6.4625 22.0855C7.63555 22.1371 8.00937 22.15 10.9957 22.15C13.982 22.15 14.3559 22.1371 15.5289 22.0855C16.6977 22.034 17.5012 21.8449 18.1973 21.5742C18.9191 21.2949 19.5336 20.9168 20.1437 20.3066C20.7539 19.6965 21.132 19.082 21.4113 18.3602C21.682 17.6598 21.8711 16.8605 21.9227 15.6918C21.9742 14.5188 21.9871 14.1449 21.9871 11.1586C21.9871 8.17227 21.9742 7.79844 21.9227 6.62539C21.8711 5.45664 21.682 4.65312 21.4113 3.95703C21.1406 3.22656 20.7668 2.61211 20.1523 2.00195C19.5422 1.3918 18.9277 1.01367 18.2059 0.734375C17.5055 0.463672 16.7063 0.274609 15.5375 0.223047C14.3602 0.167188 13.9863 0.154297 11 0.154297Z" fill="url(#paint0_linear_11_6123)"/>
<path d="M11 5.50391C7.88047 5.50391 5.34961 8.03477 5.34961 11.1543C5.34961 14.2738 7.88047 16.8047 11 16.8047C14.1195 16.8047 16.6504 14.2738 16.6504 11.1543C16.6504 8.03477 14.1195 5.50391 11 5.50391ZM11 14.8195C8.97617 14.8195 7.33477 13.1781 7.33477 11.1543C7.33477 9.13047 8.97617 7.48906 11 7.48906C13.0238 7.48906 14.6652 9.13047 14.6652 11.1543C14.6652 13.1781 13.0238 14.8195 11 14.8195Z" fill="url(#paint1_linear_11_6123)"/>
<path d="M18.193 5.28008C18.193 6.01055 17.6 6.59922 16.8738 6.59922C16.1434 6.59922 15.5547 6.00625 15.5547 5.28008C15.5547 4.54961 16.1477 3.96094 16.8738 3.96094C17.6 3.96094 18.193 4.55391 18.193 5.28008Z" fill="url(#paint2_linear_11_6123)"/>
<defs>
<linearGradient id="paint0_linear_11_6123" x1="3.81347" y1="22.15" x2="18.1736" y2="0.154296" gradientUnits="userSpaceOnUse">
<stop stop-color="#FEDA75"/>
<stop offset="0.25" stop-color="#FA7E1E"/>
<stop offset="0.5" stop-color="#D62976"/>
<stop offset="0.75" stop-color="#962FBF"/>
<stop offset="1" stop-color="#4F5BD5"/>
</linearGradient>
<linearGradient id="paint1_linear_11_6123" x1="3.81347" y1="22.15" x2="18.1736" y2="0.154296" gradientUnits="userSpaceOnUse">
<stop stop-color="#FEDA75"/>
<stop offset="0.25" stop-color="#FA7E1E"/>
<stop offset="0.5" stop-color="#D62976"/>
<stop offset="0.75" stop-color="#962FBF"/>
<stop offset="1" stop-color="#4F5BD5"/>
</linearGradient>
<linearGradient id="paint2_linear_11_6123" x1="3.81347" y1="22.15" x2="18.1736" y2="0.154296" gradientUnits="userSpaceOnUse">
<stop stop-color="#FEDA75"/>
<stop offset="0.25" stop-color="#FA7E1E"/>
<stop offset="0.5" stop-color="#D62976"/>
<stop offset="0.75" stop-color="#962FBF"/>
<stop offset="1" stop-color="#4F5BD5"/>
</linearGradient>
</defs>
</svg>
